<?xml version="1.0" encoding="iso-8859-1"?>
<!-- Generator: Adobe Illustrator 19.0.0, SVG Export Plug-In . SVG Version: 6.00 Build 0)  -->
<svg version="1.1" id="Layer_1" xmlns="http://www.w3.org/2000/svg" xmlns:xlink="http://www.w3.org/1999/xlink" x="0px" y="0px"
	 viewBox="0 0 512.001 512.001" style="enable-background:new 0 0 512.001 512.001;" xml:space="preserve">
<path style="fill:#EFCA83;" d="M338.318,176.919H18.692c-2.947,0-5.763,1.226-7.77,3.388c-2.006,2.158-3.025,5.054-2.809,7.997
	C16.12,297.635,56.424,394.13,115.925,446.425c1.936,1.701,4.425,2.64,7.003,2.64h185.777c2.579,0,5.067-0.939,7.003-2.64
	c59.503-52.298,99.806-148.792,107.811-258.122c0.216-2.944-0.802-5.838-2.808-7.999c-2.007-2.16-4.822-3.386-7.771-3.386h-46.593"
	/>
<path style="fill:#F9D191;" d="M416.123,176.919h-46.592h-28.028H169.26v0.001c0,113.336,69.829,210.346,168.806,250.399
	c48.917-54.877,81.526-141.879,88.639-239.017c0.217-2.944-0.802-5.838-2.808-7.999
	C421.888,178.143,419.073,176.919,416.123,176.919z"/>
<path style="fill:#DBAB5D;" d="M155.767,445.966C93.587,391.316,47.735,316.312,36.632,176.219c-0.04-0.488-0.027-0.973,0-1.457
	H25.65c-2.947,0-5.763,1.226-7.769,3.388c-2.006,2.158-3.026,5.054-2.811,7.997c8.007,109.332,48.311,205.826,107.812,258.122
	c1.937,1.701,4.425,2.64,7.003,2.64h27.142C156.589,446.623,156.163,446.314,155.767,445.966z"/>
<path style="fill:#F24E33;" d="M284.77,267.212l-3.244-3.202c-14.333-14.153-37.424-14.002-51.579,0.326L219,275.424l-10.949-11.088
	c-14.153-14.328-37.244-14.479-51.577-0.326l-3.244,3.202c-14.33,14.152-14.474,37.246-0.324,51.578l11.636,11.786L219,385.724
	l35.069-35.516l12.469-12.629l6.915-7.004l11.638-11.786C299.246,304.458,299.099,281.364,284.77,267.212z"/>
<g>
	<path style="fill:#B59F7C;" d="M160.09,486.696h190.103c10.392,0,18.815-8.426,18.815-18.816c0-10.389-8.423-18.814-18.815-18.814
		H81.439c-10.393,0-18.816,8.426-18.816,18.814c0,10.391,8.423,18.816,18.816,18.816h51.343"/>
	<path style="fill:#B59F7C;" d="M420.141,220.714c-1.767,13.117-4,25.991-6.685,38.565c28.767,2.704,51.357,26.977,51.357,56.438
		c0,31.266-25.434,56.7-56.698,56.7c-11.246,0-21.732-3.295-30.557-8.964c-6.042,11.97-12.606,23.265-19.631,33.826
		c14.606,9.02,31.796,14.239,50.188,14.239c52.824,0,95.8-42.976,95.8-95.802C503.915,266.969,467.305,226.653,420.141,220.714z"/>
</g>
<path style="fill:#EA4126;" d="M180.888,306.932c-14.128-14.31-13.985-37.447,0.322-51.577l3.246-3.204
	c0.229-0.226,0.467-0.44,0.7-0.659c-8.39,0.764-16.195,4.372-22.259,10.361l-3.246,3.204c-14.306,14.129-14.45,37.265-0.322,51.577
	l62.258,63.05c1.012,1.026,2.394,1.603,3.835,1.603s2.822-0.577,3.835-1.603l11.735-11.884L180.888,306.932z"/>
<path style="fill:#9B815D;" d="M353.378,467.881H163.275h-27.308H84.624c-6.961,0-13.022-3.79-16.278-9.409
	c-1.605,2.769-2.539,5.976-2.539,9.408c0,10.391,8.423,18.816,18.816,18.816h51.344h27.308H353.38
	c10.391,0,18.814-8.426,18.814-18.816c0-3.431-0.932-6.637-2.536-9.408C366.401,464.09,360.338,467.881,353.378,467.881z"/>
<g>
	<path style="fill:#231F20;" d="M429.151,214.042c0.996-8.299,1.81-16.686,2.43-25.148c0.379-5.164-1.424-10.3-4.949-14.094
		c-3.525-3.792-8.515-5.967-13.694-5.967h-46.593c-4.466,0-8.085,3.619-8.085,8.085c0,4.466,3.619,8.085,8.085,8.085h46.593
		c0.7,0,1.373,0.293,1.848,0.803c0.475,0.513,0.72,1.207,0.668,1.906c-0.784,10.699-1.884,21.268-3.28,31.682
		c-0.013,0.081-0.033,0.16-0.045,0.241c-1.729,12.833-3.942,25.604-6.58,37.957c-0.024,0.113-0.035,0.227-0.054,0.341
		c-7.909,36.981-19.726,71.258-34.809,101.277c-0.122,0.196-0.24,0.395-0.345,0.603c-5.849,11.587-12.29,22.687-19.146,32.992
		c-0.15,0.224-0.287,0.456-0.412,0.692c-12.122,18.099-25.662,33.89-40.413,46.855c-0.461,0.405-1.053,0.628-1.666,0.628H122.926
		c-0.612,0-1.204-0.223-1.665-0.628C63.316,389.424,24.031,294.98,16.176,187.716c-0.052-0.697,0.192-1.392,0.671-1.908
		c0.474-0.511,1.147-0.803,1.846-0.803h319.626c4.466,0,8.085-3.619,8.085-8.085c0-4.466-3.619-8.085-8.085-8.085H18.692
		c-5.181,0-10.172,2.178-13.692,5.968c-3.524,3.79-5.329,8.925-4.951,14.092c7.605,103.853,44.038,196.528,98.412,252.087H81.439
		c-14.834,0-26.901,12.067-26.901,26.899c0,14.834,12.067,26.901,26.901,26.901h51.343c4.466,0,8.085-3.619,8.085-8.085
		s-3.619-8.085-8.085-8.085H81.439c-5.917,0-10.731-4.814-10.731-10.731c0-5.916,4.814-10.729,10.731-10.729h41.488h185.778h41.488
		c5.916,0,10.73,4.813,10.73,10.729c0,5.917-4.814,10.731-10.73,10.731H160.09c-4.466,0-8.085,3.619-8.085,8.085
		s3.619,8.085,8.085,8.085h190.103c14.833,0,26.9-12.067,26.9-26.901c0-14.832-12.067-26.899-26.9-26.899h-17.022
		c9.669-9.88,18.772-20.927,27.245-33.008c14.702,7.627,31.039,11.634,47.699,11.634c57.282,0,103.885-46.603,103.885-103.887
		C512,266.233,476.908,223.888,429.151,214.042z M419.685,268.52c21.255,5.269,37.043,24.78,37.043,47.198
		c0,26.806-21.807,48.615-48.613,48.615c-6.911,0-13.68-1.467-19.911-4.276C401.46,332.367,412.1,301.508,419.685,268.52z
		 M408.115,403.436c-13.479,0-26.711-3.102-38.712-9.028c0.123-0.196,0.241-0.397,0.363-0.593c0.342-0.549,0.678-1.105,1.018-1.658
		c1.146-1.864,2.278-3.746,3.396-5.648c0.052-0.088,0.105-0.176,0.156-0.264c2.254-3.844,4.458-7.754,6.588-11.735
		c8.485,3.938,17.741,5.993,27.192,5.993c35.721,0,64.783-29.063,64.783-64.785c0-16.214-6.042-31.739-17.014-43.716
		c-8.854-9.663-20.282-16.346-32.825-19.318c0.015-0.078,0.028-0.157,0.043-0.235c1.442-7.365,2.74-14.821,3.88-22.363
		c39.762,8.726,68.849,44.229,68.849,85.63C495.83,364.086,456.481,403.436,408.115,403.436z"/>
	<path style="fill:#231F20;" d="M213.142,78.254c-11.684,10.637-17.531,22.461-17.377,35.147c0.25,20.662,16.82,35.259,17.524,35.87
		c1.526,1.324,3.405,1.971,5.277,1.971c2.252,0,4.493-0.939,6.093-2.769c2.931-3.351,2.586-8.453-0.752-11.397
		c-0.117-0.106-11.868-10.619-11.972-23.968c-0.063-7.832,4.008-15.534,12.095-22.894c11.684-10.635,17.531-22.461,17.377-35.147
		c-0.249-20.662-16.819-35.261-17.524-35.872c-3.371-2.924-8.478-2.56-11.405,0.813c-2.925,3.374-2.561,8.481,0.813,11.405
		c0.117,0.102,11.788,10.585,11.947,23.851C225.331,63.128,221.263,70.865,213.142,78.254z"/>
	<path style="fill:#231F20;" d="M267.404,97.298c-8.484,7.724-12.729,16.388-12.616,25.753
		c0.181,14.889,11.476,25.105,12.762,26.221c1.525,1.322,3.399,1.968,5.267,1.968c2.247,0,4.481-0.937,6.084-2.761
		c2.933-3.34,2.6-8.439-0.72-11.392c-0.071-0.065-7.181-6.481-7.224-14.317c-0.025-4.516,2.442-9.063,7.332-13.514
		c8.484-7.724,12.729-16.388,12.616-25.753c-0.181-14.889-11.476-25.105-12.762-26.221c-3.36-2.91-8.416-2.546-11.35,0.791
		c-2.933,3.34-2.6,8.439,0.72,11.392c0.071,0.065,7.18,6.481,7.224,14.317C274.762,88.301,272.295,92.848,267.404,97.298z"/>
	<path style="fill:#231F20;" d="M150.257,97.298c-8.484,7.724-12.729,16.388-12.616,25.753
		c0.181,14.889,11.476,25.105,12.762,26.221c1.525,1.322,3.399,1.968,5.267,1.968c2.247,0,4.481-0.937,6.084-2.761
		c2.933-3.34,2.6-8.439-0.72-11.392c-0.071-0.065-7.18-6.481-7.224-14.317c-0.025-4.516,2.442-9.063,7.333-13.514
		c8.484-7.724,12.729-16.388,12.616-25.753c-0.181-14.889-11.476-25.105-12.762-26.221c-3.36-2.91-8.416-2.546-11.35,0.791
		c-2.933,3.34-2.6,8.439,0.72,11.392c0.071,0.065,7.18,6.481,7.224,14.317C157.614,88.301,155.148,92.848,150.257,97.298z"/>
	<path style="fill:#231F20;" d="M255.904,245.409c-12.008,0-23.268,4.703-31.709,13.247L219,263.918l-5.196-5.263
		c-8.439-8.543-19.698-13.246-31.707-13.246c-11.792,0-22.91,4.563-31.301,12.849l-3.246,3.204
		c-17.479,17.262-17.656,45.527-0.396,63.01l66.094,66.934c1.519,1.539,3.591,2.404,5.753,2.404c2.162,0,4.234-0.867,5.753-2.404
		l66.093-66.934c17.263-17.481,17.085-45.748-0.397-63.012l-3.243-3.201C278.814,249.972,267.697,245.409,255.904,245.409z
		 M279.34,313.11L219,374.218L158.66,313.11c-10.997-11.138-10.883-29.147,0.25-40.142l3.245-3.203
		c5.347-5.279,12.428-8.186,19.941-8.186c7.653,0,14.827,2.997,20.202,8.439l10.949,11.088c1.519,1.539,3.592,2.404,5.753,2.404
		c2.162,0,4.234-0.867,5.753-2.404l10.945-11.086c5.378-5.444,12.554-8.441,20.205-8.441c7.514,0,14.595,2.906,19.943,8.187
		l3.242,3.199C290.224,283.964,290.339,301.972,279.34,313.11z"/>
</g>
<g>
</g>
<g>
</g>
<g>
</g>
<g>
</g>
<g>
</g>
<g>
</g>
<g>
</g>
<g>
</g>
<g>
</g>
<g>
</g>
<g>
</g>
<g>
</g>
<g>
</g>
<g>
</g>
<g>
</g>
</svg>
